<?xml version="1.0" encoding="UTF-8" standalone="no"?><!DOCTYPE svg PUBLIC "-//W3C//DTD SVG 1.1//EN" "http://www.w3.org/Graphics/SVG/1.1/DTD/svg11.dtd"><svg width="100%" height="100%" viewBox="0 0 2344 834" version="1.1" xmlns="http://www.w3.org/2000/svg" xmlns:xlink="http://www.w3.org/1999/xlink" xml:space="preserve" xmlns:serif="http://www.serif.com/" style="fill-rule:evenodd;clip-rule:evenodd;stroke-linejoin:round;stroke-miterlimit:2;"><g><g id="line1"><path d="M1235.64,204.167l-97.395,-0l-84.375,323.437l-76.042,0l-0,-323.437l-93.229,-0l-0,416.666l242.708,0l108.333,-416.666Z" style="fill:#fff;fill-rule:nonzero;"/><path d="M1273.14,456.771l0,164.062l89.584,0l-0,-70.833l127.604,-0l-0,70.833l93.229,0l0,-416.666l-320.833,-0l-0,93.229l65.104,-0l-54.688,159.375Zm100.521,-0l46.354,-159.375l70.313,-0l-0,159.375l-116.667,-0Z" style="fill:#fff;fill-rule:nonzero;"/><path d="M1990.33,204.167l-346.354,-0l-0,416.666l93.229,0l-0,-131.77l204.687,-0l48.438,-284.896Zm-129.688,191.666l-123.437,0l-0,-98.437l142.708,-0l-19.271,98.437Z" style="fill:#fff;fill-rule:nonzero;"/><path d="M2011.16,204.167l0,416.666l93.229,0l0,-121.875l86.98,0l37.5,121.875l97.916,0l-37.5,-121.875l54.688,0l-0,-294.791l-332.813,-0Zm93.229,202.083l0,-108.854l146.355,-0l-0,108.854l-146.355,0Z" style="fill:#fff;fill-rule:nonzero;"/></g></g><g id="logomark"><g><path d="M361.979,203.235c-8.358,-9.403 -18.806,-36.567 -20.895,-59.551c-1.045,-13.582 -0,-26.119 6.268,-33.433c-11.492,-24.029 -36.566,-34.477 -51.193,-57.462c-11.492,-17.761 -21.94,-19.85 -37.611,-33.432c-19.851,-16.716 -2.09,-26.119 -31.343,-13.582c-13.582,6.269 -31.343,12.537 -40.746,15.671c-6.269,1.045 -14.627,-2.089 -20.895,-2.089c-2.09,-0 -9.403,15.671 -16.716,17.761c-9.403,3.134 -17.761,-4.179 -26.12,-6.269c-27.163,-6.268 -22.984,-3.134 -39.701,13.582c-12.537,13.582 -34.477,19.851 -50.148,36.567c-28.209,29.253 -5.224,44.925 -12.537,78.357c-5.224,22.985 -26.119,37.612 -18.806,58.507c4.179,12.537 21.94,17.761 27.164,29.253c3.134,8.358 -3.134,19.851 -0,28.209c7.313,25.074 33.432,30.298 55.372,36.566c26.119,8.359 45.97,24.03 69.999,35.522c25.075,11.493 56.418,3.135 87.76,6.269c-1.044,4.179 -1.044,5.224 -1.044,6.269c14.626,-38.657 48.059,-56.418 86.715,-66.865c-17.761,-20.896 25.074,-67.91 34.477,-89.85Zm-84.626,-15.671c0,7.313 -1.044,13.582 -2.089,19.85c-1.045,7.314 -1.045,14.627 -4.179,19.851c-3.135,6.268 -7.314,12.537 -11.493,17.761c-4.179,5.223 -11.492,7.313 -16.716,11.492c-5.224,4.179 -7.313,13.582 -13.582,16.716c-6.268,3.135 -13.582,3.135 -20.895,5.224c-6.269,1.045 -13.582,-2.089 -20.895,-2.089c-7.314,-0 -14.627,4.179 -20.896,2.089c-7.313,-1.045 -11.492,-8.358 -17.76,-11.492c-6.269,-3.135 -12.538,-4.179 -17.761,-9.403c-5.224,-4.179 -9.403,-9.403 -13.582,-15.672c-4.179,-5.223 -10.448,-9.403 -13.582,-15.671c-3.135,-6.269 -2.09,-13.582 -3.135,-20.895c-1.044,-6.269 -8.358,-12.538 -8.358,-19.851c0,-7.313 4.179,-13.582 5.224,-20.895c1.045,-7.313 5.224,-12.537 8.358,-18.806c3.135,-6.268 6.269,-12.537 10.448,-17.761c4.179,-5.224 9.403,-9.403 15.671,-13.582c5.224,-4.179 8.358,-11.492 14.627,-14.626c6.269,-3.135 13.582,-3.135 20.895,-5.224c6.269,-1.045 13.582,-3.134 20.896,-3.134c7.313,-0 13.581,1.044 20.895,3.134c7.313,1.045 12.537,5.224 18.805,8.358c6.269,3.134 13.582,5.224 18.806,9.403c5.224,4.179 9.403,10.447 13.582,15.671c4.179,5.224 11.493,9.403 14.627,15.672c3.134,6.268 4.179,13.582 5.224,20.895c-0,9.403 -3.135,16.716 -3.135,22.985Zm129.551,403.278c-3.134,-14.627 -4.179,-32.388 -6.269,-49.104c-2.089,-17.761 -5.223,-33.432 -12.537,-43.88c-5.224,-6.268 -14.627,-16.716 -17.761,-21.94c-4.179,-5.224 1.045,-9.403 -6.268,-16.716c-4.179,-4.179 -21.94,-2.09 -28.209,-5.224c-16.716,-8.358 -26.119,-29.253 -42.835,-37.611c-6.269,-3.135 -52.238,-12.537 -58.507,-11.493c-10.448,1.045 -12.537,11.493 -20.895,15.672c-18.806,9.403 -26.119,11.492 -42.835,25.074c-12.538,10.448 -58.507,18.806 -75.223,33.432c-18.806,17.761 -16.717,43.88 -10.448,62.686c5.224,13.582 13.582,22.985 13.582,39.701c-0,18.806 -16.716,39.701 -20.895,53.283c-11.493,36.567 -22.985,66.865 22.984,73.133c31.343,4.18 39.701,13.582 65.82,28.209c32.388,18.806 72.089,7.313 107.611,9.403c44.925,2.089 25.074,24.029 30.298,57.462c3.134,22.985 53.283,42.835 71.044,20.895c4.179,-5.224 -1.045,-30.298 -1.045,-37.611c0,-15.672 -1.045,-21.94 7.314,-40.746c8.358,-18.806 10.447,-31.343 11.492,-45.97c3.134,-36.566 22.985,-71.043 13.582,-108.655Zm-68.954,12.537c-1.045,7.314 -4.179,13.582 -6.269,19.851c-3.134,7.313 -7.313,12.537 -11.492,17.761c-4.179,5.223 -7.314,12.537 -12.538,16.716c-5.223,4.179 -11.492,7.313 -17.761,10.448c-6.268,3.134 -11.492,9.402 -17.76,11.492c-6.269,2.089 -14.627,1.045 -20.896,2.089c-7.313,0 -13.582,-4.179 -19.85,-5.223c-7.314,-1.045 -12.537,-3.135 -19.851,-6.269c-6.268,-3.134 -13.582,-3.134 -18.805,-7.313c-5.224,-4.179 -10.448,-9.403 -15.672,-14.627c-4.179,-5.224 -5.224,-12.537 -8.358,-18.806c-3.134,-6.268 -12.537,-10.447 -13.582,-16.716c-2.089,-6.268 -1.045,-14.627 -1.045,-20.895c0,-7.314 4.179,-13.582 5.224,-19.851c1.045,-7.313 -1.045,-14.626 2.09,-20.895c3.134,-6.268 10.447,-9.403 14.626,-15.671c4.179,-5.224 7.314,-11.493 12.538,-16.717c5.223,-4.179 11.492,-7.313 17.76,-10.447c6.269,-3.134 11.493,-8.358 17.761,-10.448c6.269,-2.089 13.582,1.045 20.896,0c7.313,0 14.626,-6.268 20.895,-5.224c7.313,1.045 12.537,6.269 18.806,9.403c6.268,3.135 11.492,7.314 16.716,11.493c5.224,4.179 10.448,8.358 15.671,13.582c4.179,5.223 7.314,11.492 10.448,17.761c3.134,6.268 9.403,10.447 11.492,17.76c2.09,6.269 1.045,13.582 1.045,20.896c-1.045,6.268 -1.045,13.582 -2.089,19.85Zm370.89,-174.475c-1.044,-14.627 7.314,-15.672 19.851,-27.164c-15.672,-14.627 -3.134,-30.298 -2.09,-45.97c0,-2.089 0,-5.223 -1.044,-7.313c-4.18,-14.627 -16.717,-19.85 -25.075,-30.298c-15.671,-19.85 -5.224,-44.925 -15.671,-66.865c-29.254,-3.134 -68.955,24.03 -89.85,6.269c-13.582,-11.493 -13.582,-48.059 -43.88,-44.925c-14.627,2.09 -14.627,20.895 -26.119,32.388c-17.761,16.716 -19.85,7.313 -41.79,7.313c-12.538,-0 -77.313,10.448 -79.402,32.388c-1.045,7.313 22.984,24.029 27.163,29.253c28.209,41.79 5.224,57.462 -35.521,76.268c8.358,16.716 27.163,35.522 30.298,50.148c5.223,22.985 -12.538,30.298 18.805,44.925c1.045,35.522 9.403,39.701 45.97,50.149c21.94,6.268 73.133,31.343 94.029,24.029c11.492,-3.134 20.895,-17.761 32.387,-22.985c16.716,-7.313 37.612,-2.089 54.328,-9.402c-4.179,2.089 -2.09,-9.403 2.089,-10.448c25.075,-9.403 50.149,-2.09 59.552,-39.701c7.313,-34.477 -20.895,-14.627 -24.03,-48.059Zm-47.014,-11.493c-1.045,6.269 -5.224,12.538 -7.313,19.851c-3.135,6.269 -5.224,12.537 -9.403,18.806c-4.179,6.268 -9.403,10.447 -14.627,15.671c-5.224,4.179 -11.492,7.313 -17.761,10.448c-6.268,3.134 -11.492,7.313 -18.806,9.403c-6.268,2.089 -13.581,1.044 -20.895,2.089c-7.313,0 -14.627,4.179 -20.895,3.134c-6.269,-1.044 -13.582,-5.223 -19.851,-7.313c-6.268,-3.134 -10.447,-9.403 -15.671,-13.582c-6.269,-4.179 -10.448,-8.358 -14.627,-13.582c-4.179,-5.224 -10.447,-9.403 -14.626,-14.626c-3.135,-6.269 -6.269,-12.538 -7.314,-18.806c-2.089,-6.269 0,-13.582 0,-20.895c0,-7.314 -7.313,-14.627 -5.224,-20.896c1.045,-6.268 5.224,-13.582 8.359,-19.85c3.134,-6.269 9.402,-10.448 13.581,-15.672c4.18,-6.268 5.224,-13.581 10.448,-18.805c5.224,-4.179 13.582,-4.179 19.851,-8.358c6.268,-3.135 11.492,-7.314 17.761,-9.403c6.268,-2.09 13.581,-2.09 19.85,-2.09c7.313,0 13.582,-3.134 20.895,-2.089c6.269,1.044 12.537,6.268 18.806,9.403c6.269,3.134 15.671,1.044 20.895,4.179c6.269,4.179 9.403,11.492 13.582,16.716c4.179,5.224 7.314,11.492 10.448,17.761c3.134,6.268 6.268,12.537 8.358,18.805c2.089,6.269 2.089,13.582 2.089,19.851c-1.044,5.224 3.135,12.537 2.09,19.85Z" style="fill:#fff;fill-rule:nonzero;"/></g></g></svg>